<svg width="779" height="112" viewBox="0 0 779 112" fill="none" xmlns="http://www.w3.org/2000/svg">
<path d="M65.1094 80C65.6427 82.1333 65.9094 84.8 65.9094 88C65.9094 91.0667 65.6427 93.7333 65.1094 96H57.1094C57.6427 98.1333 57.9094 100.8 57.9094 104C57.9094 107.067 57.6427 109.733 57.1094 112H17.1094C16.576 109.733 16.3094 107.067 16.3094 104C16.3094 100.8 16.576 98.1333 17.1094 96H9.10938C8.57604 93.7333 8.30938 91.0667 8.30938 88C8.30938 84.8 8.57604 82.1333 9.10938 80H1.10938C0.576042 77.7333 0.309375 75.0667 0.309375 72C0.309375 68.8 0.576042 66.1333 1.10938 64C0.576042 61.7333 0.309375 59.0667 0.309375 56C0.309375 52.8 0.576042 50.1333 1.10938 48C0.576042 45.7333 0.309375 43.0667 0.309375 40C0.309375 36.8 0.576042 34.1333 1.10938 32H9.10938C8.57604 29.7333 8.30938 27.0667 8.30938 24C8.30938 20.8 8.57604 18.1333 9.10938 16H17.1094C16.576 13.7333 16.3094 11.0667 16.3094 7.99999C16.3094 4.79999 16.576 2.13333 17.1094 -4.76837e-07H57.1094C57.6427 2.13333 57.9094 4.79999 57.9094 7.99999C57.9094 11.0667 57.6427 13.7333 57.1094 16H65.1094C65.6427 18.1333 65.9094 20.8 65.9094 24C65.9094 27.0667 65.6427 29.7333 65.1094 32H49.1094C48.576 29.7333 48.3094 27.0667 48.3094 24C48.3094 20.8 48.576 18.1333 49.1094 16H25.1094C25.6427 18.1333 25.9094 20.8 25.9094 24C25.9094 27.0667 25.6427 29.7333 25.1094 32H17.1094C17.6427 34.1333 17.9094 36.8 17.9094 40C17.9094 43.0667 17.6427 45.7333 17.1094 48C17.6427 50.1333 17.9094 52.8 17.9094 56C17.9094 59.0667 17.6427 61.7333 17.1094 64C17.6427 66.1333 17.9094 68.8 17.9094 72C17.9094 75.0667 17.6427 77.7333 17.1094 80H25.1094C25.6427 82.1333 25.9094 84.8 25.9094 88C25.9094 91.0667 25.6427 93.7333 25.1094 96H49.1094C48.576 93.7333 48.3094 91.0667 48.3094 88C48.3094 84.8 48.576 82.1333 49.1094 80H65.1094ZM145.188 96C145.721 98.1333 145.988 100.8 145.988 104C145.988 107.067 145.721 109.733 145.188 112H129.188C128.654 109.733 128.388 107.067 128.388 104C128.388 100.8 128.654 98.1333 129.188 96H123.188C122.654 93.7333 122.388 91.0667 122.388 88C122.388 84.8 122.654 82.1333 123.188 80H117.188C116.654 77.7333 116.388 75.0667 116.388 72C116.388 68.8 116.654 66.1333 117.188 64H97.1875C97.7208 66.1333 97.9875 68.8 97.9875 72C97.9875 75.0667 97.7208 77.7333 97.1875 80C97.7208 82.1333 97.9875 84.8 97.9875 88C97.9875 91.0667 97.7208 93.7333 97.1875 96C97.7208 98.1333 97.9875 100.8 97.9875 104C97.9875 107.067 97.7208 109.733 97.1875 112H81.1875C80.6542 109.733 80.3875 107.067 80.3875 104C80.3875 100.8 80.6542 98.1333 81.1875 96C80.6542 93.7333 80.3875 91.0667 80.3875 88C80.3875 84.8 80.6542 82.1333 81.1875 80C80.6542 77.7333 80.3875 75.0667 80.3875 72C80.3875 68.8 80.6542 66.1333 81.1875 64C80.6542 61.7333 80.3875 59.0667 80.3875 56C80.3875 52.8 80.6542 50.1333 81.1875 48C80.6542 45.7333 80.3875 43.0667 80.3875 40C80.3875 36.8 80.6542 34.1333 81.1875 32C80.6542 29.7333 80.3875 27.0667 80.3875 24C80.3875 20.8 80.6542 18.1333 81.1875 16C80.6542 13.7333 80.3875 11.0667 80.3875 7.99999C80.3875 4.79999 80.6542 2.13333 81.1875 -4.76837e-07H137.188C137.721 2.13333 137.988 4.79999 137.988 7.99999C137.988 11.0667 137.721 13.7333 137.188 16H145.188C145.721 18.1333 145.988 20.8 145.988 24C145.988 27.0667 145.721 29.7333 145.188 32H141.188C141.721 34.1333 141.988 36.8 141.988 40C141.988 43.0667 141.721 45.7333 141.188 48H129.188C129.721 50.1333 129.988 52.8 129.988 56C129.988 59.0667 129.721 61.7333 129.188 64H133.188C133.721 66.1333 133.988 68.8 133.988 72C133.988 75.0667 133.721 77.7333 133.188 80H139.188C139.721 82.1333 139.988 84.8 139.988 88C139.988 91.0667 139.721 93.7333 139.188 96H145.188ZM125.188 48C124.654 45.7333 124.388 43.0667 124.388 40C124.388 36.8 124.654 34.1333 125.188 32C124.654 29.7333 124.388 27.0667 124.388 24C124.388 20.8 124.654 18.1333 125.188 16H97.1875C97.7208 18.1333 97.9875 20.8 97.9875 24C97.9875 27.0667 97.7208 29.7333 97.1875 32C97.7208 34.1333 97.9875 36.8 97.9875 40C97.9875 43.0667 97.7208 45.7333 97.1875 48H125.188ZM225.266 48C225.799 50.1333 226.066 52.8 226.066 56C226.066 59.0667 225.799 61.7333 225.266 64C225.799 66.1333 226.066 68.8 226.066 72C226.066 75.0667 225.799 77.7333 225.266 80H219.266C219.799 82.1333 220.066 84.8 220.066 88C220.066 91.0667 219.799 93.7333 219.266 96H209.266C209.799 98.1333 210.066 100.8 210.066 104C210.066 107.067 209.799 109.733 209.266 112H177.266C176.732 109.733 176.466 107.067 176.466 104C176.466 100.8 176.732 98.1333 177.266 96H167.266C166.732 93.7333 166.466 91.0667 166.466 88C166.466 84.8 166.732 82.1333 167.266 80H161.266C160.732 77.7333 160.466 75.0667 160.466 72C160.466 68.8 160.732 66.1333 161.266 64C160.732 61.7333 160.466 59.0667 160.466 56C160.466 52.8 160.732 50.1333 161.266 48C160.732 45.7333 160.466 43.0667 160.466 40C160.466 36.8 160.732 34.1333 161.266 32H167.266C166.732 29.7333 166.466 27.0667 166.466 24C166.466 20.8 166.732 18.1333 167.266 16H177.266C176.732 13.7333 176.466 11.0667 176.466 7.99999C176.466 4.79999 176.732 2.13333 177.266 -4.76837e-07H209.266C209.799 2.13333 210.066 4.79999 210.066 7.99999C210.066 11.0667 209.799 13.7333 209.266 16H219.266C219.799 18.1333 220.066 20.8 220.066 24C220.066 27.0667 219.799 29.7333 219.266 32H225.266C225.799 34.1333 226.066 36.8 226.066 40C226.066 43.0667 225.799 45.7333 225.266 48ZM209.266 80C208.732 77.7333 208.466 75.0667 208.466 72C208.466 68.8 208.732 66.1333 209.266 64C208.732 61.7333 208.466 59.0667 208.466 56C208.466 52.8 208.732 50.1333 209.266 48C208.732 45.7333 208.466 43.0667 208.466 40C208.466 36.8 208.732 34.1333 209.266 32H203.266C202.732 29.7333 202.466 27.0667 202.466 24C202.466 20.8 202.732 18.1333 203.266 16H183.266C183.799 18.1333 184.066 20.8 184.066 24C184.066 27.0667 183.799 29.7333 183.266 32H177.266C177.799 34.1333 178.066 36.8 178.066 40C178.066 43.0667 177.799 45.7333 177.266 48C177.799 50.1333 178.066 52.8 178.066 56C178.066 59.0667 177.799 61.7333 177.266 64C177.799 66.1333 178.066 68.8 178.066 72C178.066 75.0667 177.799 77.7333 177.266 80H183.266C183.799 82.1333 184.066 84.8 184.066 88C184.066 91.0667 183.799 93.7333 183.266 96H203.266C202.732 93.7333 202.466 91.0667 202.466 88C202.466 84.8 202.732 82.1333 203.266 80H209.266ZM306.144 88C306.144 91.0667 305.877 93.7333 305.344 96C305.877 98.1333 306.144 100.8 306.144 104C306.144 107.067 305.877 109.733 305.344 112H289.344C288.81 109.733 288.544 107.067 288.544 104C288.544 100.8 288.81 98.1333 289.344 96C288.81 93.7333 288.544 91.0667 288.544 88C288.544 84.8 288.81 82.1333 289.344 80H257.344C257.877 82.1333 258.144 84.8 258.144 88C258.144 91.0667 257.877 93.7333 257.344 96C257.877 98.1333 258.144 100.8 258.144 104C258.144 107.067 257.877 109.733 257.344 112H241.344C240.81 109.733 240.544 107.067 240.544 104C240.544 100.8 240.81 98.1333 241.344 96C240.81 93.7333 240.544 91.0667 240.544 88C240.544 84.8 240.81 82.1333 241.344 80H247.344C246.81 77.7333 246.544 75.0667 246.544 72C246.544 68.8 246.81 66.1333 247.344 64C246.81 61.7333 246.544 59.0667 246.544 56C246.544 52.8 246.81 50.1333 247.344 48H251.344C250.81 45.7333 250.544 43.0667 250.544 40C250.544 36.8 250.81 34.1333 251.344 32H257.344C256.81 29.7333 256.544 27.0667 256.544 24C256.544 20.8 256.81 18.1333 257.344 16H261.344C260.81 13.7333 260.544 11.0667 260.544 7.99999C260.544 4.79999 260.81 2.13333 261.344 -4.76837e-07H285.344C285.877 2.13333 286.144 4.79999 286.144 7.99999C286.144 11.0667 285.877 13.7333 285.344 16H289.344C289.877 18.1333 290.144 20.8 290.144 24C290.144 27.0667 289.877 29.7333 289.344 32H295.344C295.877 34.1333 296.144 36.8 296.144 40C296.144 43.0667 295.877 45.7333 295.344 48H299.344C299.877 50.1333 300.144 52.8 300.144 56C300.144 59.0667 299.877 61.7333 299.344 64C299.877 66.1333 300.144 68.8 300.144 72C300.144 75.0667 299.877 77.7333 299.344 80H305.344C305.877 82.1333 306.144 84.8 306.144 88ZM283.344 64C282.81 61.7333 282.544 59.0667 282.544 56C282.544 52.8 282.81 50.1333 283.344 48H279.344C278.81 45.7333 278.544 43.0667 278.544 40C278.544 36.8 278.81 34.1333 279.344 32H267.344C267.877 34.1333 268.144 36.8 268.144 40C268.144 43.0667 267.877 45.7333 267.344 48H263.344C263.877 50.1333 264.144 52.8 264.144 56C264.144 59.0667 263.877 61.7333 263.344 64H283.344ZM385.422 96C385.955 98.1333 386.222 100.8 386.222 104C386.222 107.067 385.955 109.733 385.422 112H369.422C368.889 109.733 368.622 107.067 368.622 104C368.622 100.8 368.889 98.1333 369.422 96H363.422C362.889 93.7333 362.622 91.0667 362.622 88C362.622 84.8 362.889 82.1333 363.422 80H351.422C350.889 77.7333 350.622 75.0667 350.622 72C350.622 68.8 350.889 66.1333 351.422 64H337.422C337.955 66.1333 338.222 68.8 338.222 72C338.222 75.0667 337.955 77.7333 337.422 80C337.955 82.1333 338.222 84.8 338.222 88C338.222 91.0667 337.955 93.7333 337.422 96C337.955 98.1333 338.222 100.8 338.222 104C338.222 107.067 337.955 109.733 337.422 112H321.422C320.889 109.733 320.622 107.067 320.622 104C320.622 100.8 320.889 98.1333 321.422 96C320.889 93.7333 320.622 91.0667 320.622 88C320.622 84.8 320.889 82.1333 321.422 80C320.889 77.7333 320.622 75.0667 320.622 72C320.622 68.8 320.889 66.1333 321.422 64C320.889 61.7333 320.622 59.0667 320.622 56C320.622 52.8 320.889 50.1333 321.422 48C320.889 45.7333 320.622 43.0667 320.622 40C320.622 36.8 320.889 34.1333 321.422 32C320.889 29.7333 320.622 27.0667 320.622 24C320.622 20.8 320.889 18.1333 321.422 16C320.889 13.7333 320.622 11.0667 320.622 7.99999C320.622 4.79999 320.889 2.13333 321.422 -4.76837e-07H337.422C337.955 2.13333 338.222 4.79999 338.222 7.99999C338.222 11.0667 337.955 13.7333 337.422 16C337.955 18.1333 338.222 20.8 338.222 24C338.222 27.0667 337.955 29.7333 337.422 32C337.955 34.1333 338.222 36.8 338.222 40C338.222 43.0667 337.955 45.7333 337.422 48H351.422C350.889 45.7333 350.622 43.0667 350.622 40C350.622 36.8 350.889 34.1333 351.422 32H363.422C362.889 29.7333 362.622 27.0667 362.622 24C362.622 20.8 362.889 18.1333 363.422 16H369.422C368.889 13.7333 368.622 11.0667 368.622 7.99999C368.622 4.79999 368.889 2.13333 369.422 -4.76837e-07H385.422C385.955 2.13333 386.222 4.79999 386.222 7.99999C386.222 11.0667 385.955 13.7333 385.422 16H379.422C379.955 18.1333 380.222 20.8 380.222 24C380.222 27.0667 379.955 29.7333 379.422 32H367.422C367.955 34.1333 368.222 36.8 368.222 40C368.222 43.0667 367.955 45.7333 367.422 48H357.422C357.955 50.1333 358.222 52.8 358.222 56C358.222 59.0667 357.955 61.7333 357.422 64H367.422C367.955 66.1333 368.222 68.8 368.222 72C368.222 75.0667 367.955 77.7333 367.422 80H379.422C379.955 82.1333 380.222 84.8 380.222 88C380.222 91.0667 379.955 93.7333 379.422 96H385.422ZM545.578 48C546.111 50.1333 546.378 52.8 546.378 56C546.378 59.0667 546.111 61.7333 545.578 64C546.111 66.1333 546.378 68.8 546.378 72C546.378 75.0667 546.111 77.7333 545.578 80C546.111 82.1333 546.378 84.8 546.378 88C546.378 91.0667 546.111 93.7333 545.578 96H537.578C538.111 98.1333 538.378 100.8 538.378 104C538.378 107.067 538.111 109.733 537.578 112H497.578C497.045 109.733 496.778 107.067 496.778 104C496.778 100.8 497.045 98.1333 497.578 96H489.578C489.045 93.7333 488.778 91.0667 488.778 88C488.778 84.8 489.045 82.1333 489.578 80H481.578C481.045 77.7333 480.778 75.0667 480.778 72C480.778 68.8 481.045 66.1333 481.578 64C481.045 61.7333 480.778 59.0667 480.778 56C480.778 52.8 481.045 50.1333 481.578 48C481.045 45.7333 480.778 43.0667 480.778 40C480.778 36.8 481.045 34.1333 481.578 32H489.578C489.045 29.7333 488.778 27.0667 488.778 24C488.778 20.8 489.045 18.1333 489.578 16H497.578C497.045 13.7333 496.778 11.0667 496.778 7.99999C496.778 4.79999 497.045 2.13333 497.578 -4.76837e-07H537.578C538.111 2.13333 538.378 4.79999 538.378 7.99999C538.378 11.0667 538.111 13.7333 537.578 16H545.578C546.111 18.1333 546.378 20.8 546.378 24C546.378 27.0667 546.111 29.7333 545.578 32H529.578C529.045 29.7333 528.778 27.0667 528.778 24C528.778 20.8 529.045 18.1333 529.578 16H505.578C506.111 18.1333 506.378 20.8 506.378 24C506.378 27.0667 506.111 29.7333 505.578 32H497.578C498.111 34.1333 498.378 36.8 498.378 40C498.378 43.0667 498.111 45.7333 497.578 48C498.111 50.1333 498.378 52.8 498.378 56C498.378 59.0667 498.111 61.7333 497.578 64C498.111 66.1333 498.378 68.8 498.378 72C498.378 75.0667 498.111 77.7333 497.578 80H505.578C506.111 82.1333 506.378 84.8 506.378 88C506.378 91.0667 506.111 93.7333 505.578 96H529.578C529.045 93.7333 528.778 91.0667 528.778 88C528.778 84.8 529.045 82.1333 529.578 80C529.045 77.7333 528.778 75.0667 528.778 72C528.778 68.8 529.045 66.1333 529.578 64H517.578C517.045 61.7333 516.778 59.0667 516.778 56C516.778 52.8 517.045 50.1333 517.578 48H545.578ZM626.456 88C626.456 91.0667 626.19 93.7333 625.656 96C626.19 98.1333 626.456 100.8 626.456 104C626.456 107.067 626.19 109.733 625.656 112H609.656C609.123 109.733 608.856 107.067 608.856 104C608.856 100.8 609.123 98.1333 609.656 96C609.123 93.7333 608.856 91.0667 608.856 88C608.856 84.8 609.123 82.1333 609.656 80H577.656C578.19 82.1333 578.456 84.8 578.456 88C578.456 91.0667 578.19 93.7333 577.656 96C578.19 98.1333 578.456 100.8 578.456 104C578.456 107.067 578.19 109.733 577.656 112H561.656C561.123 109.733 560.856 107.067 560.856 104C560.856 100.8 561.123 98.1333 561.656 96C561.123 93.7333 560.856 91.0667 560.856 88C560.856 84.8 561.123 82.1333 561.656 80H567.656C567.123 77.7333 566.856 75.0667 566.856 72C566.856 68.8 567.123 66.1333 567.656 64C567.123 61.7333 566.856 59.0667 566.856 56C566.856 52.8 567.123 50.1333 567.656 48H571.656C571.123 45.7333 570.856 43.0667 570.856 40C570.856 36.8 571.123 34.1333 571.656 32H577.656C577.123 29.7333 576.856 27.0667 576.856 24C576.856 20.8 577.123 18.1333 577.656 16H581.656C581.123 13.7333 580.856 11.0667 580.856 7.99999C580.856 4.79999 581.123 2.13333 581.656 -4.76837e-07H605.656C606.19 2.13333 606.456 4.79999 606.456 7.99999C606.456 11.0667 606.19 13.7333 605.656 16H609.656C610.19 18.1333 610.456 20.8 610.456 24C610.456 27.0667 610.19 29.7333 609.656 32H615.656C616.19 34.1333 616.456 36.8 616.456 40C616.456 43.0667 616.19 45.7333 615.656 48H619.656C620.19 50.1333 620.456 52.8 620.456 56C620.456 59.0667 620.19 61.7333 619.656 64C620.19 66.1333 620.456 68.8 620.456 72C620.456 75.0667 620.19 77.7333 619.656 80H625.656C626.19 82.1333 626.456 84.8 626.456 88ZM603.656 64C603.123 61.7333 602.856 59.0667 602.856 56C602.856 52.8 603.123 50.1333 603.656 48H599.656C599.123 45.7333 598.856 43.0667 598.856 40C598.856 36.8 599.123 34.1333 599.656 32H587.656C588.19 34.1333 588.456 36.8 588.456 40C588.456 43.0667 588.19 45.7333 587.656 48H583.656C584.19 50.1333 584.456 52.8 584.456 56C584.456 59.0667 584.19 61.7333 583.656 64H603.656ZM705.734 16C706.268 18.1333 706.534 20.8 706.534 24C706.534 27.0667 706.268 29.7333 705.734 32C706.268 34.1333 706.534 36.8 706.534 40C706.534 43.0667 706.268 45.7333 705.734 48C706.268 50.1333 706.534 52.8 706.534 56C706.534 59.0667 706.268 61.7333 705.734 64C706.268 66.1333 706.534 68.8 706.534 72C706.534 75.0667 706.268 77.7333 705.734 80C706.268 82.1333 706.534 84.8 706.534 88C706.534 91.0667 706.268 93.7333 705.734 96C706.268 98.1333 706.534 100.8 706.534 104C706.534 107.067 706.268 109.733 705.734 112H689.734C689.201 109.733 688.934 107.067 688.934 104C688.934 100.8 689.201 98.1333 689.734 96C689.201 93.7333 688.934 91.0667 688.934 88C688.934 84.8 689.201 82.1333 689.734 80C689.201 77.7333 688.934 75.0667 688.934 72C688.934 68.8 689.201 66.1333 689.734 64C689.201 61.7333 688.934 59.0667 688.934 56C688.934 52.8 689.201 50.1333 689.734 48C689.201 45.7333 688.934 43.0667 688.934 40C688.934 36.8 689.201 34.1333 689.734 32H683.734C684.268 34.1333 684.534 36.8 684.534 40C684.534 43.0667 684.268 45.7333 683.734 48C684.268 50.1333 684.534 52.8 684.534 56C684.534 59.0667 684.268 61.7333 683.734 64H679.734C680.268 66.1333 680.534 68.8 680.534 72C680.534 75.0667 680.268 77.7333 679.734 80C680.268 82.1333 680.534 84.8 680.534 88C680.534 91.0667 680.268 93.7333 679.734 96H667.734C667.201 93.7333 666.934 91.0667 666.934 88C666.934 84.8 667.201 82.1333 667.734 80C667.201 77.7333 666.934 75.0667 666.934 72C666.934 68.8 667.201 66.1333 667.734 64H663.734C663.201 61.7333 662.934 59.0667 662.934 56C662.934 52.8 663.201 50.1333 663.734 48C663.201 45.7333 662.934 43.0667 662.934 40C662.934 36.8 663.201 34.1333 663.734 32H657.734C658.268 34.1333 658.534 36.8 658.534 40C658.534 43.0667 658.268 45.7333 657.734 48C658.268 50.1333 658.534 52.8 658.534 56C658.534 59.0667 658.268 61.7333 657.734 64C658.268 66.1333 658.534 68.8 658.534 72C658.534 75.0667 658.268 77.7333 657.734 80C658.268 82.1333 658.534 84.8 658.534 88C658.534 91.0667 658.268 93.7333 657.734 96C658.268 98.1333 658.534 100.8 658.534 104C658.534 107.067 658.268 109.733 657.734 112H641.734C641.201 109.733 640.934 107.067 640.934 104C640.934 100.8 641.201 98.1333 641.734 96C641.201 93.7333 640.934 91.0667 640.934 88C640.934 84.8 641.201 82.1333 641.734 80C641.201 77.7333 640.934 75.0667 640.934 72C640.934 68.8 641.201 66.1333 641.734 64C641.201 61.7333 640.934 59.0667 640.934 56C640.934 52.8 641.201 50.1333 641.734 48C641.201 45.7333 640.934 43.0667 640.934 40C640.934 36.8 641.201 34.1333 641.734 32C641.201 29.7333 640.934 27.0667 640.934 24C640.934 20.8 641.201 18.1333 641.734 16C641.201 13.7333 640.934 11.0667 640.934 7.99999C640.934 4.79999 641.201 2.13333 641.734 -4.76837e-07H661.734C662.268 2.13333 662.534 4.79999 662.534 7.99999C662.534 11.0667 662.268 13.7333 661.734 16H667.734C668.268 18.1333 668.534 20.8 668.534 24C668.534 27.0667 668.268 29.7333 667.734 32H670.734C671.268 34.1333 671.534 36.8 671.534 40C671.534 43.0667 671.268 45.7333 670.734 48H676.734C676.201 45.7333 675.934 43.0667 675.934 40C675.934 36.8 676.201 34.1333 676.734 32H679.734C679.201 29.7333 678.934 27.0667 678.934 24C678.934 20.8 679.201 18.1333 679.734 16H685.734C685.201 13.7333 684.934 11.0667 684.934 7.99999C684.934 4.79999 685.201 2.13333 685.734 -4.76837e-07H705.734C706.268 2.13333 706.534 4.79999 706.534 7.99999C706.534 11.0667 706.268 13.7333 705.734 16ZM745.813 64C746.346 66.1333 746.613 68.8 746.613 72C746.613 75.0667 746.346 77.7333 745.813 80C746.346 82.1333 746.613 84.8 746.613 88C746.613 91.0667 746.346 93.7333 745.813 96H777.813C778.346 98.1333 778.613 100.8 778.613 104C778.613 107.067 778.346 109.733 777.813 112H729.813C729.279 109.733 729.013 107.067 729.013 104C729.013 100.8 729.279 98.1333 729.813 96C729.279 93.7333 729.013 91.0667 729.013 88C729.013 84.8 729.279 82.1333 729.813 80C729.279 77.7333 729.013 75.0667 729.013 72C729.013 68.8 729.279 66.1333 729.813 64C729.279 61.7333 729.013 59.0667 729.013 56C729.013 52.8 729.279 50.1333 729.813 48C729.279 45.7333 729.013 43.0667 729.013 40C729.013 36.8 729.279 34.1333 729.813 32C729.279 29.7333 729.013 27.0667 729.013 24C729.013 20.8 729.279 18.1333 729.813 16C729.279 13.7333 729.013 11.0667 729.013 7.99999C729.013 4.79999 729.279 2.13333 729.813 -4.76837e-07H777.813C778.346 2.13333 778.613 4.79999 778.613 7.99999C778.613 11.0667 778.346 13.7333 777.813 16H745.813C746.346 18.1333 746.613 20.8 746.613 24C746.613 27.0667 746.346 29.7333 745.813 32C746.346 34.1333 746.613 36.8 746.613 40C746.613 43.0667 746.346 45.7333 745.813 48H777.813C778.346 50.1333 778.613 52.8 778.613 56C778.613 59.0667 778.346 61.7333 777.813 64H745.813Z" fill="black"/>
</svg>
