<svg width="256" height="31" viewBox="0 0 256 31" fill="none" xmlns="http://www.w3.org/2000/svg">
<path d="M17.7134 13.72C17.8574 14.296 17.9294 15.016 17.9294 15.88C17.9294 16.708 17.8574 17.428 17.7134 18.04C17.8574 18.616 17.9294 19.336 17.9294 20.2C17.9294 21.028 17.8574 21.748 17.7134 22.36H15.5534C15.6974 22.936 15.7694 23.656 15.7694 24.52C15.7694 25.348 15.6974 26.068 15.5534 26.68H13.3934C13.5374 27.256 13.6094 27.976 13.6094 28.84C13.6094 29.668 13.5374 30.388 13.3934 31H0.433438C0.289438 30.388 0.217438 29.668 0.217438 28.84C0.217438 27.976 0.289438 27.256 0.433438 26.68C0.289438 26.068 0.217438 25.348 0.217438 24.52C0.217438 23.656 0.289438 22.936 0.433438 22.36C0.289438 21.748 0.217438 21.028 0.217438 20.2C0.217438 19.336 0.289438 18.616 0.433438 18.04C0.289438 17.428 0.217438 16.708 0.217438 15.88C0.217438 15.016 0.289438 14.296 0.433438 13.72C0.289438 13.108 0.217438 12.388 0.217438 11.56C0.217438 10.696 0.289438 9.976 0.433438 9.4C0.289438 8.788 0.217438 8.068 0.217438 7.24C0.217438 6.376 0.289438 5.656 0.433438 5.08C0.289438 4.468 0.217438 3.748 0.217438 2.92C0.217438 2.056 0.289438 1.336 0.433438 0.76H13.3934C13.5374 1.336 13.6094 2.056 13.6094 2.92C13.6094 3.748 13.5374 4.468 13.3934 5.08H15.5534C15.6974 5.656 15.7694 6.376 15.7694 7.24C15.7694 8.068 15.6974 8.788 15.5534 9.4H17.7134C17.8574 9.976 17.9294 10.696 17.9294 11.56C17.9294 12.388 17.8574 13.108 17.7134 13.72ZM13.3934 22.36C13.2494 21.748 13.1774 21.028 13.1774 20.2C13.1774 19.336 13.2494 18.616 13.3934 18.04C13.2494 17.428 13.1774 16.708 13.1774 15.88C13.1774 15.016 13.2494 14.296 13.3934 13.72C13.2494 13.108 13.1774 12.388 13.1774 11.56C13.1774 10.696 13.2494 9.976 13.3934 9.4H11.2334C11.0894 8.788 11.0174 8.068 11.0174 7.24C11.0174 6.376 11.0894 5.656 11.2334 5.08H4.75344C4.89744 5.656 4.96944 6.376 4.96944 7.24C4.96944 8.068 4.89744 8.788 4.75344 9.4C4.89744 9.976 4.96944 10.696 4.96944 11.56C4.96944 12.388 4.89744 13.108 4.75344 13.72C4.89744 14.296 4.96944 15.016 4.96944 15.88C4.96944 16.708 4.89744 17.428 4.75344 18.04C4.89744 18.616 4.96944 19.336 4.96944 20.2C4.96944 21.028 4.89744 21.748 4.75344 22.36C4.89744 22.936 4.96944 23.656 4.96944 24.52C4.96944 25.348 4.89744 26.068 4.75344 26.68H11.2334C11.0894 26.068 11.0174 25.348 11.0174 24.52C11.0174 23.656 11.0894 22.936 11.2334 22.36H13.3934ZM28.5345 18.04C28.6785 18.616 28.7505 19.336 28.7505 20.2C28.7505 21.028 28.6785 21.748 28.5345 22.36C28.6785 22.936 28.7505 23.656 28.7505 24.52C28.7505 25.348 28.6785 26.068 28.5345 26.68H37.1745C37.3185 27.256 37.3905 27.976 37.3905 28.84C37.3905 29.668 37.3185 30.388 37.1745 31H24.2145C24.0705 30.388 23.9985 29.668 23.9985 28.84C23.9985 27.976 24.0705 27.256 24.2145 26.68C24.0705 26.068 23.9985 25.348 23.9985 24.52C23.9985 23.656 24.0705 22.936 24.2145 22.36C24.0705 21.748 23.9985 21.028 23.9985 20.2C23.9985 19.336 24.0705 18.616 24.2145 18.04C24.0705 17.428 23.9985 16.708 23.9985 15.88C23.9985 15.016 24.0705 14.296 24.2145 13.72C24.0705 13.108 23.9985 12.388 23.9985 11.56C23.9985 10.696 24.0705 9.976 24.2145 9.4C24.0705 8.788 23.9985 8.068 23.9985 7.24C23.9985 6.376 24.0705 5.656 24.2145 5.08C24.0705 4.468 23.9985 3.748 23.9985 2.92C23.9985 2.056 24.0705 1.336 24.2145 0.76H37.1745C37.3185 1.336 37.3905 2.056 37.3905 2.92C37.3905 3.748 37.3185 4.468 37.1745 5.08H28.5345C28.6785 5.656 28.7505 6.376 28.7505 7.24C28.7505 8.068 28.6785 8.788 28.5345 9.4C28.6785 9.976 28.7505 10.696 28.7505 11.56C28.7505 12.388 28.6785 13.108 28.5345 13.72H37.1745C37.3185 14.296 37.3905 15.016 37.3905 15.88C37.3905 16.708 37.3185 17.428 37.1745 18.04H28.5345ZM60.9556 5.08C61.0996 5.656 61.1716 6.376 61.1716 7.24C61.1716 8.068 61.0996 8.788 60.9556 9.4C61.0996 9.976 61.1716 10.696 61.1716 11.56C61.1716 12.388 61.0996 13.108 60.9556 13.72C61.0996 14.296 61.1716 15.016 61.1716 15.88C61.1716 16.708 61.0996 17.428 60.9556 18.04C61.0996 18.616 61.1716 19.336 61.1716 20.2C61.1716 21.028 61.0996 21.748 60.9556 22.36C61.0996 22.936 61.1716 23.656 61.1716 24.52C61.1716 25.348 61.0996 26.068 60.9556 26.68C61.0996 27.256 61.1716 27.976 61.1716 28.84C61.1716 29.668 61.0996 30.388 60.9556 31H56.6356C56.4916 30.388 56.4196 29.668 56.4196 28.84C56.4196 27.976 56.4916 27.256 56.6356 26.68C56.4916 26.068 56.4196 25.348 56.4196 24.52C56.4196 23.656 56.4916 22.936 56.6356 22.36C56.4916 21.748 56.4196 21.028 56.4196 20.2C56.4196 19.336 56.4916 18.616 56.6356 18.04C56.4916 17.428 56.4196 16.708 56.4196 15.88C56.4196 15.016 56.4916 14.296 56.6356 13.72C56.4916 13.108 56.4196 12.388 56.4196 11.56C56.4196 10.696 56.4916 9.976 56.6356 9.4H55.0156C55.1596 9.976 55.2316 10.696 55.2316 11.56C55.2316 12.388 55.1596 13.108 55.0156 13.72C55.1596 14.296 55.2316 15.016 55.2316 15.88C55.2316 16.708 55.1596 17.428 55.0156 18.04H53.9356C54.0796 18.616 54.1516 19.336 54.1516 20.2C54.1516 21.028 54.0796 21.748 53.9356 22.36C54.0796 22.936 54.1516 23.656 54.1516 24.52C54.1516 25.348 54.0796 26.068 53.9356 26.68H50.6956C50.5516 26.068 50.4796 25.348 50.4796 24.52C50.4796 23.656 50.5516 22.936 50.6956 22.36C50.5516 21.748 50.4796 21.028 50.4796 20.2C50.4796 19.336 50.5516 18.616 50.6956 18.04H49.6156C49.4716 17.428 49.3996 16.708 49.3996 15.88C49.3996 15.016 49.4716 14.296 49.6156 13.72C49.4716 13.108 49.3996 12.388 49.3996 11.56C49.3996 10.696 49.4716 9.976 49.6156 9.4H47.9956C48.1396 9.976 48.2116 10.696 48.2116 11.56C48.2116 12.388 48.1396 13.108 47.9956 13.72C48.1396 14.296 48.2116 15.016 48.2116 15.88C48.2116 16.708 48.1396 17.428 47.9956 18.04C48.1396 18.616 48.2116 19.336 48.2116 20.2C48.2116 21.028 48.1396 21.748 47.9956 22.36C48.1396 22.936 48.2116 23.656 48.2116 24.52C48.2116 25.348 48.1396 26.068 47.9956 26.68C48.1396 27.256 48.2116 27.976 48.2116 28.84C48.2116 29.668 48.1396 30.388 47.9956 31H43.6756C43.5316 30.388 43.4596 29.668 43.4596 28.84C43.4596 27.976 43.5316 27.256 43.6756 26.68C43.5316 26.068 43.4596 25.348 43.4596 24.52C43.4596 23.656 43.5316 22.936 43.6756 22.36C43.5316 21.748 43.4596 21.028 43.4596 20.2C43.4596 19.336 43.5316 18.616 43.6756 18.04C43.5316 17.428 43.4596 16.708 43.4596 15.88C43.4596 15.016 43.5316 14.296 43.6756 13.72C43.5316 13.108 43.4596 12.388 43.4596 11.56C43.4596 10.696 43.5316 9.976 43.6756 9.4C43.5316 8.788 43.4596 8.068 43.4596 7.24C43.4596 6.376 43.5316 5.656 43.6756 5.08C43.5316 4.468 43.4596 3.748 43.4596 2.92C43.4596 2.056 43.5316 1.336 43.6756 0.76H49.0756C49.2196 1.336 49.2916 2.056 49.2916 2.92C49.2916 3.748 49.2196 4.468 49.0756 5.08H50.6956C50.8396 5.656 50.9116 6.376 50.9116 7.24C50.9116 8.068 50.8396 8.788 50.6956 9.4H51.5056C51.6496 9.976 51.7216 10.696 51.7216 11.56C51.7216 12.388 51.6496 13.108 51.5056 13.72H53.1256C52.9816 13.108 52.9096 12.388 52.9096 11.56C52.9096 10.696 52.9816 9.976 53.1256 9.4H53.9356C53.7916 8.788 53.7196 8.068 53.7196 7.24C53.7196 6.376 53.7916 5.656 53.9356 5.08H55.5556C55.4116 4.468 55.3396 3.748 55.3396 2.92C55.3396 2.056 55.4116 1.336 55.5556 0.76H60.9556C61.0996 1.336 61.1716 2.056 61.1716 2.92C61.1716 3.748 61.0996 4.468 60.9556 5.08ZM82.5767 13.72C82.7207 14.296 82.7927 15.016 82.7927 15.88C82.7927 16.708 82.7207 17.428 82.5767 18.04C82.7207 18.616 82.7927 19.336 82.7927 20.2C82.7927 21.028 82.7207 21.748 82.5767 22.36H80.9567C81.1007 22.936 81.1727 23.656 81.1727 24.52C81.1727 25.348 81.1007 26.068 80.9567 26.68H78.2567C78.4007 27.256 78.4727 27.976 78.4727 28.84C78.4727 29.668 78.4007 30.388 78.2567 31H69.6167C69.4727 30.388 69.4007 29.668 69.4007 28.84C69.4007 27.976 69.4727 27.256 69.6167 26.68H66.9167C66.7727 26.068 66.7007 25.348 66.7007 24.52C66.7007 23.656 66.7727 22.936 66.9167 22.36H65.2967C65.1527 21.748 65.0807 21.028 65.0807 20.2C65.0807 19.336 65.1527 18.616 65.2967 18.04C65.1527 17.428 65.0807 16.708 65.0807 15.88C65.0807 15.016 65.1527 14.296 65.2967 13.72C65.1527 13.108 65.0807 12.388 65.0807 11.56C65.0807 10.696 65.1527 9.976 65.2967 9.4H66.9167C66.7727 8.788 66.7007 8.068 66.7007 7.24C66.7007 6.376 66.7727 5.656 66.9167 5.08H69.6167C69.4727 4.468 69.4007 3.748 69.4007 2.92C69.4007 2.056 69.4727 1.336 69.6167 0.76H78.2567C78.4007 1.336 78.4727 2.056 78.4727 2.92C78.4727 3.748 78.4007 4.468 78.2567 5.08H80.9567C81.1007 5.656 81.1727 6.376 81.1727 7.24C81.1727 8.068 81.1007 8.788 80.9567 9.4H82.5767C82.7207 9.976 82.7927 10.696 82.7927 11.56C82.7927 12.388 82.7207 13.108 82.5767 13.72ZM78.2567 22.36C78.1127 21.748 78.0407 21.028 78.0407 20.2C78.0407 19.336 78.1127 18.616 78.2567 18.04C78.1127 17.428 78.0407 16.708 78.0407 15.88C78.0407 15.016 78.1127 14.296 78.2567 13.72C78.1127 13.108 78.0407 12.388 78.0407 11.56C78.0407 10.696 78.1127 9.976 78.2567 9.4H76.6367C76.4927 8.788 76.4207 8.068 76.4207 7.24C76.4207 6.376 76.4927 5.656 76.6367 5.08H71.2367C71.3807 5.656 71.4527 6.376 71.4527 7.24C71.4527 8.068 71.3807 8.788 71.2367 9.4H69.6167C69.7607 9.976 69.8327 10.696 69.8327 11.56C69.8327 12.388 69.7607 13.108 69.6167 13.72C69.7607 14.296 69.8327 15.016 69.8327 15.88C69.8327 16.708 69.7607 17.428 69.6167 18.04C69.7607 18.616 69.8327 19.336 69.8327 20.2C69.8327 21.028 69.7607 21.748 69.6167 22.36H71.2367C71.3807 22.936 71.4527 23.656 71.4527 24.52C71.4527 25.348 71.3807 26.068 71.2367 26.68H76.6367C76.4927 26.068 76.4207 25.348 76.4207 24.52C76.4207 23.656 76.4927 22.936 76.6367 22.36H78.2567ZM126.035 11.56C126.035 12.388 125.963 13.108 125.819 13.72H123.659C123.803 14.296 123.875 15.016 123.875 15.88C123.875 16.708 123.803 17.428 123.659 18.04H125.819C125.963 18.616 126.035 19.336 126.035 20.2C126.035 21.028 125.963 21.748 125.819 22.36C125.963 22.936 126.035 23.656 126.035 24.52C126.035 25.348 125.963 26.068 125.819 26.68H123.659C123.803 27.256 123.875 27.976 123.875 28.84C123.875 29.668 123.803 30.388 123.659 31H108.539C108.395 30.388 108.323 29.668 108.323 28.84C108.323 27.976 108.395 27.256 108.539 26.68C108.395 26.068 108.323 25.348 108.323 24.52C108.323 23.656 108.395 22.936 108.539 22.36C108.395 21.748 108.323 21.028 108.323 20.2C108.323 19.336 108.395 18.616 108.539 18.04C108.395 17.428 108.323 16.708 108.323 15.88C108.323 15.016 108.395 14.296 108.539 13.72C108.395 13.108 108.323 12.388 108.323 11.56C108.323 10.696 108.395 9.976 108.539 9.4C108.395 8.788 108.323 8.068 108.323 7.24C108.323 6.376 108.395 5.656 108.539 5.08C108.395 4.468 108.323 3.748 108.323 2.92C108.323 2.056 108.395 1.336 108.539 0.76H123.659C123.803 1.336 123.875 2.056 123.875 2.92C123.875 3.748 123.803 4.468 123.659 5.08H125.819C125.963 5.656 126.035 6.376 126.035 7.24C126.035 8.068 125.963 8.788 125.819 9.4C125.963 9.976 126.035 10.696 126.035 11.56ZM121.499 13.72C121.355 13.108 121.283 12.388 121.283 11.56C121.283 10.696 121.355 9.976 121.499 9.4C121.355 8.788 121.283 8.068 121.283 7.24C121.283 6.376 121.355 5.656 121.499 5.08H112.859C113.003 5.656 113.075 6.376 113.075 7.24C113.075 8.068 113.003 8.788 112.859 9.4C113.003 9.976 113.075 10.696 113.075 11.56C113.075 12.388 113.003 13.108 112.859 13.72H121.499ZM121.499 22.36C121.355 21.748 121.283 21.028 121.283 20.2C121.283 19.336 121.355 18.616 121.499 18.04H112.859C113.003 18.616 113.075 19.336 113.075 20.2C113.075 21.028 113.003 21.748 112.859 22.36C113.003 22.936 113.075 23.656 113.075 24.52C113.075 25.348 113.003 26.068 112.859 26.68H121.499C121.355 26.068 121.283 25.348 121.283 24.52C121.283 23.656 121.355 22.936 121.499 22.36ZM147.656 2.92C147.656 3.748 147.584 4.468 147.44 5.08C147.584 5.656 147.656 6.376 147.656 7.24C147.656 8.068 147.584 8.788 147.44 9.4H145.28C145.424 9.976 145.496 10.696 145.496 11.56C145.496 12.388 145.424 13.108 145.28 13.72H143.12C143.264 14.296 143.336 15.016 143.336 15.88C143.336 16.708 143.264 17.428 143.12 18.04H140.96C141.104 18.616 141.176 19.336 141.176 20.2C141.176 21.028 141.104 21.748 140.96 22.36C141.104 22.936 141.176 23.656 141.176 24.52C141.176 25.348 141.104 26.068 140.96 26.68C141.104 27.256 141.176 27.976 141.176 28.84C141.176 29.668 141.104 30.388 140.96 31H136.64C136.496 30.388 136.424 29.668 136.424 28.84C136.424 27.976 136.496 27.256 136.64 26.68C136.496 26.068 136.424 25.348 136.424 24.52C136.424 23.656 136.496 22.936 136.64 22.36C136.496 21.748 136.424 21.028 136.424 20.2C136.424 19.336 136.496 18.616 136.64 18.04H134.48C134.336 17.428 134.264 16.708 134.264 15.88C134.264 15.016 134.336 14.296 134.48 13.72H132.32C132.176 13.108 132.104 12.388 132.104 11.56C132.104 10.696 132.176 9.976 132.32 9.4H130.16C130.016 8.788 129.944 8.068 129.944 7.24C129.944 6.376 130.016 5.656 130.16 5.08C130.016 4.468 129.944 3.748 129.944 2.92C129.944 2.056 130.016 1.336 130.16 0.76H134.48C134.624 1.336 134.696 2.056 134.696 2.92C134.696 3.748 134.624 4.468 134.48 5.08C134.624 5.656 134.696 6.376 134.696 7.24C134.696 8.068 134.624 8.788 134.48 9.4H136.64C136.784 9.976 136.856 10.696 136.856 11.56C136.856 12.388 136.784 13.108 136.64 13.72H140.96C140.816 13.108 140.744 12.388 140.744 11.56C140.744 10.696 140.816 9.976 140.96 9.4H143.12C142.976 8.788 142.904 8.068 142.904 7.24C142.904 6.376 142.976 5.656 143.12 5.08C142.976 4.468 142.904 3.748 142.904 2.92C142.904 2.056 142.976 1.336 143.12 0.76H147.44C147.584 1.336 147.656 2.056 147.656 2.92ZM190.682 13.72C190.826 14.296 190.898 15.016 190.898 15.88C190.898 16.708 190.826 17.428 190.682 18.04C190.826 18.616 190.898 19.336 190.898 20.2C190.898 21.028 190.826 21.748 190.682 22.36C190.826 22.936 190.898 23.656 190.898 24.52C190.898 25.348 190.826 26.068 190.682 26.68H188.522C188.666 27.256 188.738 27.976 188.738 28.84C188.738 29.668 188.666 30.388 188.522 31H177.722C177.578 30.388 177.506 29.668 177.506 28.84C177.506 27.976 177.578 27.256 177.722 26.68H175.562C175.418 26.068 175.346 25.348 175.346 24.52C175.346 23.656 175.418 22.936 175.562 22.36H173.402C173.258 21.748 173.186 21.028 173.186 20.2C173.186 19.336 173.258 18.616 173.402 18.04C173.258 17.428 173.186 16.708 173.186 15.88C173.186 15.016 173.258 14.296 173.402 13.72C173.258 13.108 173.186 12.388 173.186 11.56C173.186 10.696 173.258 9.976 173.402 9.4H175.562C175.418 8.788 175.346 8.068 175.346 7.24C175.346 6.376 175.418 5.656 175.562 5.08H177.722C177.578 4.468 177.506 3.748 177.506 2.92C177.506 2.056 177.578 1.336 177.722 0.76H188.522C188.666 1.336 188.738 2.056 188.738 2.92C188.738 3.748 188.666 4.468 188.522 5.08H190.682C190.826 5.656 190.898 6.376 190.898 7.24C190.898 8.068 190.826 8.788 190.682 9.4H186.362C186.218 8.788 186.146 8.068 186.146 7.24C186.146 6.376 186.218 5.656 186.362 5.08H179.882C180.026 5.656 180.098 6.376 180.098 7.24C180.098 8.068 180.026 8.788 179.882 9.4H177.722C177.866 9.976 177.938 10.696 177.938 11.56C177.938 12.388 177.866 13.108 177.722 13.72C177.866 14.296 177.938 15.016 177.938 15.88C177.938 16.708 177.866 17.428 177.722 18.04C177.866 18.616 177.938 19.336 177.938 20.2C177.938 21.028 177.866 21.748 177.722 22.36H179.882C180.026 22.936 180.098 23.656 180.098 24.52C180.098 25.348 180.026 26.068 179.882 26.68H186.362C186.218 26.068 186.146 25.348 186.146 24.52C186.146 23.656 186.218 22.936 186.362 22.36C186.218 21.748 186.146 21.028 186.146 20.2C186.146 19.336 186.218 18.616 186.362 18.04H183.122C182.978 17.428 182.906 16.708 182.906 15.88C182.906 15.016 182.978 14.296 183.122 13.72H190.682ZM212.303 26.68C212.447 27.256 212.519 27.976 212.519 28.84C212.519 29.668 212.447 30.388 212.303 31H197.183C197.039 30.388 196.967 29.668 196.967 28.84C196.967 27.976 197.039 27.256 197.183 26.68C197.039 26.068 196.967 25.348 196.967 24.52C196.967 23.656 197.039 22.936 197.183 22.36C197.039 21.748 196.967 21.028 196.967 20.2C196.967 19.336 197.039 18.616 197.183 18.04C197.039 17.428 196.967 16.708 196.967 15.88C196.967 15.016 197.039 14.296 197.183 13.72C197.039 13.108 196.967 12.388 196.967 11.56C196.967 10.696 197.039 9.976 197.183 9.4C197.039 8.788 196.967 8.068 196.967 7.24C196.967 6.376 197.039 5.656 197.183 5.08C197.039 4.468 196.967 3.748 196.967 2.92C196.967 2.056 197.039 1.336 197.183 0.76H201.503C201.647 1.336 201.719 2.056 201.719 2.92C201.719 3.748 201.647 4.468 201.503 5.08C201.647 5.656 201.719 6.376 201.719 7.24C201.719 8.068 201.647 8.788 201.503 9.4C201.647 9.976 201.719 10.696 201.719 11.56C201.719 12.388 201.647 13.108 201.503 13.72C201.647 14.296 201.719 15.016 201.719 15.88C201.719 16.708 201.647 17.428 201.503 18.04C201.647 18.616 201.719 19.336 201.719 20.2C201.719 21.028 201.647 21.748 201.503 22.36C201.647 22.936 201.719 23.656 201.719 24.52C201.719 25.348 201.647 26.068 201.503 26.68H212.303ZM230.684 26.68C230.828 27.256 230.9 27.976 230.9 28.84C230.9 29.668 230.828 30.388 230.684 31H219.884C219.74 30.388 219.668 29.668 219.668 28.84C219.668 27.976 219.74 27.256 219.884 26.68H223.124C222.98 26.068 222.908 25.348 222.908 24.52C222.908 23.656 222.98 22.936 223.124 22.36C222.98 21.748 222.908 21.028 222.908 20.2C222.908 19.336 222.98 18.616 223.124 18.04C222.98 17.428 222.908 16.708 222.908 15.88C222.908 15.016 222.98 14.296 223.124 13.72C222.98 13.108 222.908 12.388 222.908 11.56C222.908 10.696 222.98 9.976 223.124 9.4C222.98 8.788 222.908 8.068 222.908 7.24C222.908 6.376 222.98 5.656 223.124 5.08H219.884C219.74 4.468 219.668 3.748 219.668 2.92C219.668 2.056 219.74 1.336 219.884 0.76H230.684C230.828 1.336 230.9 2.056 230.9 2.92C230.9 3.748 230.828 4.468 230.684 5.08H227.444C227.588 5.656 227.66 6.376 227.66 7.24C227.66 8.068 227.588 8.788 227.444 9.4C227.588 9.976 227.66 10.696 227.66 11.56C227.66 12.388 227.588 13.108 227.444 13.72C227.588 14.296 227.66 15.016 227.66 15.88C227.66 16.708 227.588 17.428 227.444 18.04C227.588 18.616 227.66 19.336 227.66 20.2C227.66 21.028 227.588 21.748 227.444 22.36C227.588 22.936 227.66 23.656 227.66 24.52C227.66 25.348 227.588 26.068 227.444 26.68H230.684ZM255.761 7.24C255.761 8.068 255.689 8.788 255.545 9.4C255.689 9.976 255.761 10.696 255.761 11.56C255.761 12.388 255.689 13.108 255.545 13.72H253.385C253.529 14.296 253.601 15.016 253.601 15.88C253.601 16.708 253.529 17.428 253.385 18.04H242.585C242.729 18.616 242.801 19.336 242.801 20.2C242.801 21.028 242.729 21.748 242.585 22.36C242.729 22.936 242.801 23.656 242.801 24.52C242.801 25.348 242.729 26.068 242.585 26.68C242.729 27.256 242.801 27.976 242.801 28.84C242.801 29.668 242.729 30.388 242.585 31H238.265C238.121 30.388 238.049 29.668 238.049 28.84C238.049 27.976 238.121 27.256 238.265 26.68C238.121 26.068 238.049 25.348 238.049 24.52C238.049 23.656 238.121 22.936 238.265 22.36C238.121 21.748 238.049 21.028 238.049 20.2C238.049 19.336 238.121 18.616 238.265 18.04C238.121 17.428 238.049 16.708 238.049 15.88C238.049 15.016 238.121 14.296 238.265 13.72C238.121 13.108 238.049 12.388 238.049 11.56C238.049 10.696 238.121 9.976 238.265 9.4C238.121 8.788 238.049 8.068 238.049 7.24C238.049 6.376 238.121 5.656 238.265 5.08C238.121 4.468 238.049 3.748 238.049 2.92C238.049 2.056 238.121 1.336 238.265 0.76H253.385C253.529 1.336 253.601 2.056 253.601 2.92C253.601 3.748 253.529 4.468 253.385 5.08H255.545C255.689 5.656 255.761 6.376 255.761 7.24ZM251.225 13.72C251.081 13.108 251.009 12.388 251.009 11.56C251.009 10.696 251.081 9.976 251.225 9.4C251.081 8.788 251.009 8.068 251.009 7.24C251.009 6.376 251.081 5.656 251.225 5.08H242.585C242.729 5.656 242.801 6.376 242.801 7.24C242.801 8.068 242.729 8.788 242.585 9.4C242.729 9.976 242.801 10.696 242.801 11.56C242.801 12.388 242.729 13.108 242.585 13.72H251.225Z" fill="black"/>
<path d="M-1.72656 39.046H257.705V41.746H-1.72656V39.046Z" fill="black"/>
</svg>
